<?xml version="1.0" standalone="no"?><!DOCTYPE svg PUBLIC "-//W3C//DTD SVG 1.1//EN" "http://www.w3.org/Graphics/SVG/1.1/DTD/svg11.dtd"><svg t="1607986865642" class="icon" viewBox="0 0 1024 1024" version="1.1" xmlns="http://www.w3.org/2000/svg" p-id="1084" xmlns:xlink="http://www.w3.org/1999/xlink" width="48" height="48"><defs><style type="text/css"></style></defs><path d="M260.1875 530.09375h-80.625c-4.40625 0-8.0625 3.65625-8.0625 8.0625v44.34375c0 4.40625 3.65625 8.0625 8.0625 8.0625h80.625c4.40625 0 8.0625-3.65625 8.0625-8.0625v-44.34375c-0.09375-4.40625-3.65625-8.0625-8.0625-8.0625z m42.375-221.90625c-3.09375-3.09375-8.25-3.09375-11.34375 0L259.8125 339.5c-3.09375 3.09375-3.09375 8.25 0 11.34375l57 57c3.09375 3.09375 8.25 3.09375 11.34375 0l31.3125-31.3125c3.09375-3.09375 3.09375-8.25 0-11.34375l-56.90625-57zM764.5625 339.5L733.25 308.1875c-3.09375-3.09375-8.25-3.09375-11.34375 0L664.8125 365.1875c-3.09375 3.09375-3.09375 8.25 0 11.34375l31.3125 31.3125c3.09375 3.09375 8.25 3.09375 11.34375 0l57-57c3.1875-3.09375 3.1875-8.15625 0.09375-11.34375z m-12.75 198.65625v44.34375c0 4.40625 3.65625 8.0625 8.0625 8.0625h80.625c4.40625 0 8.0625-3.65625 8.0625-8.0625v-44.34375c0-4.40625-3.65625-8.0625-8.0625-8.0625h-80.625c-4.5 0-8.0625 3.65625-8.0625 8.0625zM489.875 318.59375h44.34375c4.40625 0 8.0625-3.65625 8.0625-8.0625v-80.625c0-4.40625-3.65625-8.0625-8.0625-8.0625h-44.34375c-4.40625 0-8.0625 3.65625-8.0625 8.0625v80.625c0 4.40625 3.5625 8.0625 8.0625 8.0625z m134.4375 102.1875c-3.09375-3.09375-8.25-3.09375-11.34375 0l-85.125 85.125c-18.84375-5.0625-39.65625-0.1875-54.46875 14.625-22.03125 22.03125-22.03125 57.75 0 79.78125 22.03125 22.03125 57.75 22.03125 79.78125 0 14.8125-14.8125 19.6875-35.625 14.625-54.46875l85.125-85.125c3.09375-3.09375 3.09375-8.25 0-11.34375l-28.59375-28.59375zM763.25 838.4375H260.75c-78.65625-71.0625-123.46875-171.65625-123.46875-278.0625 0-100.125 39-194.25 109.78125-264.9375 70.78125-70.78125 164.90625-109.78125 264.9375-109.78125 100.125 0 194.25 39 264.9375 109.78125 70.78125 70.78125 109.78125 164.90625 109.78125 264.9375 0 106.40625-44.8125 207-123.46875 278.0625z m164.625-453.75c-22.78125-53.8125-55.3125-102.09375-96.75-143.4375-41.4375-41.4375-89.625-73.96875-143.4375-96.75C632 120.875 572.9375 109.0625 512 109.0625S392 120.875 336.3125 144.5c-53.8125 22.78125-102.09375 55.3125-143.4375 96.75-41.4375 41.4375-73.96875 89.625-96.75 143.4375-23.53125 55.6875-35.4375 114.75-35.4375 175.6875 0 133.6875 58.6875 259.59375 161.0625 345.65625l1.6875 1.40625c5.8125 4.875 13.21875 7.59375 20.71875 7.59375h535.6875c7.59375 0 14.90625-2.71875 20.71875-7.59375l1.6875-1.40625c102.28125-86.0625 160.96875-211.96875 160.96875-345.65625 0.09375-60.9375-11.90625-120-35.34375-175.6875z" fill="#e54d42" p-id="1085"></path></svg>