<?xml version="1.0" standalone="no"?><!DOCTYPE svg PUBLIC "-//W3C//DTD SVG 1.1//EN" "http://www.w3.org/Graphics/SVG/1.1/DTD/svg11.dtd"><svg t="1607986706099" class="icon" viewBox="0 0 1025 1024" version="1.1" xmlns="http://www.w3.org/2000/svg" p-id="1084" xmlns:xlink="http://www.w3.org/1999/xlink" width="48.046875" height="48"><defs><style type="text/css"></style></defs><path d="M253.8746875 363.7484375a31.2684375 31.2684375 0 0 0 31.4053125-31.336875 31.40625 31.40625 0 0 0-9.0515625-22.3546875c-24.4115625-24.8221875-35.52-46.35375-32.91375-63.976875 2.056875-14.4 13.71375-27.0853125 26.2621875-40.59375 17.76-19.2 39.84-42.9946875 38.88-78.9946875-0.890625-31.543125-19.2-60.8915625-54.24-87.36a31.40625 31.40625 0 0 0-44.0221875 6.24 31.68 31.68 0 0 0 6.24 44.16c18.51375 13.9884375 28.8 27.703125 29.1421875 38.743125 0.2746875 9.6684375-8.2284375 19.336875-22.0115625 34.2853125-17.690625 18.99375-37.6453125 40.59375-42.51375 74.536875-5.48625 38.12625 11.52 77.623125 50.4 117.2578125a31.1315625 31.1315625 0 0 0 22.423125 9.39375z m191.1084375 0a31.2684375 31.2684375 0 0 0 31.40625-31.336875 31.40625 31.40625 0 0 0-9.0525-22.3546875c-24.4115625-24.8221875-35.4515625-46.35375-32.91375-63.976875 2.056875-14.4 13.7821875-27.0853125 26.2621875-40.59375 17.829375-19.2 39.84-42.9946875 38.88-78.9946875-0.890625-31.543125-19.2-60.8915625-54.24-87.36a31.40625 31.40625 0 0 0-44.0221875 6.24 31.68 31.68 0 0 0 6.24 44.16c18.51375 13.9884375 28.8 27.703125 29.1421875 38.743125 0.2746875 9.6684375-8.2284375 19.336875-22.010625 34.2853125-17.623125 18.99375-37.64625 40.59375-42.5146875 74.536875-5.4853125 38.12625 11.52 77.623125 50.4 117.2578125a31.1315625 31.1315625 0 0 0 22.423125 9.39375z m437.07375 84.2746875c-20.503125 0-41.55375 5.896875-61.3715625 17.00625a97.44 97.44 0 0 0-94.7653125-68.915625H139.84c-48.48 0-86.743125 36.7546875-86.743125 82.0125v74.19375c0 213.39375 173.143125 387.84 386.6746875 387.84 90.376875 0 178.2853125-35.2453125 247.816875-91.7484375h-0.136875a408.343125 408.343125 0 0 0 113.9653125-164.4346875c22.903125 17.76 51.703125 27.4284375 80.64 27.4284375 72.20625 0 130.9715625-59.2453125 130.9715625-131.656875 0-72.5484375-58.7653125-131.656875-130.9715625-131.656875z m0.1378125 199.816875a68.2284375 68.2284375 0 0 1-56.64-30.376875 25.576875 25.576875 0 0 1-4.2515625-15.6346875c0.890625-15.5653125 0.890625-41.143125 0.8221875-54.03375 0-3.6346875 1.3715625-7.063125 3.703125-9.80625 15.7715625-17.8284375 34.1484375-26.9484375 54.72-26.9484375 38.056875 0 68.983125 30.72 68.983125 68.3653125a67.8853125 67.8853125 0 0 1-67.336875 68.4346875z m-246.1715625-284.090625a31.68 31.68 0 0 0 22.4221875-53.6925c-24.3421875-24.8221875-35.450625-46.35375-32.91375-63.976875 2.056875-14.4 13.783125-27.1546875 26.263125-40.59375 17.8284375-19.2 39.9084375-42.9946875 38.88-78.9946875-0.96-31.543125-19.2-60.8915625-54.24-87.36a31.2 31.2 0 0 0-44.023125 6.24 31.40625 31.40625 0 0 0 6.24 44.16c18.51375 13.9884375 28.8 27.703125 29.2115625 38.743125 0.20625 9.6684375-8.2284375 19.336875-22.08 34.2853125-17.623125 19.063125-37.64625 40.59375-42.5146875 74.536875-5.4853125 38.12625 11.52 77.623125 50.4 117.2578125a31.1315625 31.1315625 0 0 0 22.423125 9.39375z" p-id="1085" fill="#0081ff"></path></svg>