<?xml version="1.0" standalone="no"?><!DOCTYPE svg PUBLIC "-//W3C//DTD SVG 1.1//EN" "http://www.w3.org/Graphics/SVG/1.1/DTD/svg11.dtd"><svg t="1587151782503" class="icon" viewBox="0 0 1024 1024" version="1.1" xmlns="http://www.w3.org/2000/svg" p-id="1559" width="128" height="128" xmlns:xlink="http://www.w3.org/1999/xlink"><defs><style type="text/css"></style></defs><path d="M94.208 385.024c0 26.624-20.48 47.104-47.104 47.104-12.288 0-24.576-4.096-32.768-14.336-10.24-8.192-14.336-20.48-14.336-32.768 0-12.288 4.096-24.576 14.336-32.768 8.192-8.192 20.48-14.336 32.768-14.336 12.288 0 24.576 4.096 32.768 14.336 10.24 8.192 14.336 20.48 14.336 32.768z m-69.632 0c0 12.288 10.24 24.576 24.576 24.576 12.288 0 24.576-10.24 24.576-24.576 0-12.288-10.24-24.576-24.576-24.576-14.336 2.048-24.576 12.288-24.576 24.576z m110.592 276.48c4.096 0 8.192 4.096 8.192 8.192 0 2.048 0 4.096-2.048 6.144-2.048 2.048-4.096 2.048-6.144 2.048h-16.384v16.384c0 4.096-4.096 8.192-8.192 8.192-2.048 0-4.096 0-6.144-2.048 0-2.048-2.048-4.096-2.048-6.144v-16.384h-16.384c-4.096 0-8.192-4.096-8.192-8.192s4.096-8.192 8.192-8.192H102.4v-16.384c0-4.096 4.096-8.192 8.192-8.192s8.192 4.096 8.192 8.192v16.384h16.384z m43.008-446.464V190.464H153.6c-4.096 0-6.144-2.048-8.192-4.096-2.048 0-2.048-4.096-4.096-6.144 0-6.144 6.144-12.288 12.288-12.288h22.528V143.36c0-6.144 6.144-12.288 12.288-12.288s12.288 6.144 12.288 12.288v24.576H225.28c4.096 0 6.144 2.048 8.192 4.096 2.048 2.048 4.096 6.144 4.096 8.192 0 6.144-6.144 12.288-12.288 12.288H200.704v24.576c0 6.144-6.144 12.288-12.288 12.288-4.096 0-6.144-2.048-8.192-4.096-2.048-4.096-2.048-8.192-2.048-10.24z m837.632 385.024c4.096 0 8.192 4.096 8.192 8.192 0 2.048 0 4.096-2.048 6.144h-22.528v16.384c0 4.096-4.096 8.192-8.192 8.192-2.048 0-4.096 0-6.144-2.048-2.048-2.048-2.048-4.096-2.048-6.144V614.4h-16.384c-4.096 0-8.192-4.096-8.192-8.192 0-2.048 0-4.096 2.048-6.144 2.048-2.048 4.096-2.048 6.144-2.048h16.384v-16.384c0-4.096 4.096-8.192 8.192-8.192s8.192 4.096 8.192 8.192v16.384l16.384 2.048z m-149.504-356.352c26.624 0 47.104 20.48 47.104 47.104 0 26.624-20.48 47.104-47.104 47.104-26.624 0-47.104-20.48-47.104-47.104 0-12.288 4.096-24.576 14.336-32.768 8.192-10.24 20.48-14.336 32.768-14.336z m0 69.632c12.288 0 24.576-10.24 24.576-24.576 0-12.288-10.24-24.576-24.576-24.576-12.288 0-24.576 10.24-24.576 24.576s10.24 24.576 24.576 24.576z m-65.536 98.304l59.392 104.448c2.048 4.096 2.048 8.192 2.048 10.24 0 6.144-2.048 10.24-8.192 12.288l-53.248 20.48V780.288c0 6.144-2.048 10.24-6.144 12.288l-278.528 98.304c-2.048 2.048-4.096 2.048-4.096 2.048h-2.048c-2.048 0-4.096 0-6.144-2.048L225.28 792.576c-4.096-2.048-6.144-8.192-6.144-14.336V559.104l-53.248-20.48c-4.096-2.048-8.192-6.144-8.192-12.288 0-4.096 0-8.192 2.048-10.24l59.392-104.448c0-6.144 2.048-10.24 6.144-12.288l278.528-98.304c2.048-2.048 4.096-2.048 8.192-2.048 2.048 0 4.096 0 8.192 2.048L798.72 399.36c2.048 2.048 4.096 6.144 2.048 12.288z m-614.4 106.496L450.56 618.496l49.152-94.208v-2.048L239.616 430.08l-53.248 88.064z m313.344 344.064V571.392L466.944 634.88c-2.048 2.048-2.048 4.096-4.096 6.144-2.048 6.144-8.192 8.192-12.288 6.144l-206.848-79.872v204.8l256 90.112z m10.24-362.496L757.76 411.648l-247.808-88.064-247.808 88.064 247.808 88.064z m270.336 272.384v-204.8L573.44 645.12c-6.144 2.048-10.24 0-12.288-6.144-2.048-2.048-4.096-2.048-4.096-6.144l-32.768-63.488V860.16l256-88.064z m-208.896-153.6l264.192-100.352-51.2-90.112-260.096 92.16v2.048l47.104 96.256z m0 0" fill="#e54d42" p-id="1560"></path></svg>